# xmcd CD database file
#
# Track frame offsets:
#	150
#	57367
#	116682
#	167169
#	223943
#	273128
#
# Disc length: 4403 seconds
#
# Revision: 0
# Processed by: cddbd v1.5PL3 Copyright (c) Steve Scherf et al.
# Submitted via: CDex 1.51
#
DISCID=57113106
DTITLE=Brad Mdhldau - THE ART OF THE TRIO VOLUME TWO
DYEAR=1998
DGENRE=Jazz
TTITLE0=It's Alright With Me
TTITLE1=YoungAnd Foolish
TTITLE2=Monk's Dream
TTITLE3=The Way You Look Tonight
TTITLE4=Moon River
TTITLE5=Countdown
EXTD=YEAR: 1998
EXTT0=
EXTT1=
EXTT2=
EXTT3=
EXTT4=
EXTT5=
PLAYORDER=
